<svg width="24" height="25" viewBox="0 0 24 25" fill="none" xmlns="http://www.w3.org/2000/svg">
<path d="M15 21.5V17.5C15 16.9696 15.2107 16.4609 15.5858 16.0858C15.9609 15.7107 16.4696 15.5 17 15.5H21" stroke="black" stroke-width="2" stroke-linecap="round" stroke-linejoin="round"/>
<path d="M7 4.5V6.5C7.21572 7.11347 7.62494 7.64024 8.16602 8.00096C8.7071 8.36168 9.35075 8.53682 10 8.5C10.5304 8.5 11.0391 8.71071 11.4142 9.08579C11.7893 9.46086 12 9.96957 12 10.5C12 11.0304 12.2107 11.5391 12.5858 11.9142C12.9609 12.2893 13.4696 12.5 14 12.5C14.5304 12.5 15.0391 12.2893 15.4142 11.9142C15.7893 11.5391 16 11.0304 16 10.5C16 9.96957 16.2107 9.46086 16.5858 9.08579C16.9609 8.71071 17.4696 8.5 18 8.5H21" stroke="black" stroke-width="2" stroke-linecap="round" stroke-linejoin="round"/>
<path d="M3 11.5H5C5.53043 11.5 6.03914 11.7107 6.41421 12.0858C6.78929 12.4609 7 12.9696 7 13.5V14.5C7 15.0304 7.21071 15.5391 7.58579 15.9142C7.96086 16.2893 8.46957 16.5 9 16.5C9.53043 16.5 10.0391 16.7107 10.4142 17.0858C10.7893 17.4609 11 17.9696 11 18.5V22.5" stroke="black" stroke-width="2" stroke-linecap="round" stroke-linejoin="round"/>
<path d="M12 22.5C17.5228 22.5 22 18.0228 22 12.5C22 6.97715 17.5228 2.5 12 2.5C6.47715 2.5 2 6.97715 2 12.5C2 18.0228 6.47715 22.5 12 22.5Z" stroke="black" stroke-width="2" stroke-linecap="round" stroke-linejoin="round"/>
</svg>
