<svg width="25" height="24" viewBox="0 0 25 24" fill="none" xmlns="http://www.w3.org/2000/svg">
<path d="M17.5 2H7.5C4.73858 2 2.5 4.23858 2.5 7V17C2.5 19.7614 4.73858 22 7.5 22H17.5C20.2614 22 22.5 19.7614 22.5 17V7C22.5 4.23858 20.2614 2 17.5 2Z" stroke="black" stroke-width="2" stroke-linecap="round" stroke-linejoin="round"/>
<path d="M16.5 11.37C16.6234 12.2022 16.4813 13.0522 16.0938 13.799C15.7063 14.5458 15.0932 15.1514 14.3416 15.5297C13.5901 15.9079 12.7385 16.0396 11.9078 15.9059C11.0771 15.7723 10.3098 15.3801 9.71485 14.7852C9.11993 14.1902 8.72774 13.4229 8.59408 12.5922C8.46042 11.7615 8.59208 10.9099 8.97034 10.1584C9.3486 9.40685 9.9542 8.79374 10.701 8.40624C11.4478 8.01874 12.2978 7.87658 13.13 8C13.9789 8.12588 14.7649 8.52146 15.3717 9.1283C15.9785 9.73515 16.3741 10.5211 16.5 11.37Z" stroke="black" stroke-width="2" stroke-linecap="round" stroke-linejoin="round"/>
<path d="M18 6.5H18.01" stroke="black" stroke-width="2" stroke-linecap="round" stroke-linejoin="round"/>
</svg>
