<svg width="24" height="25" viewBox="0 0 24 25" fill="none" xmlns="http://www.w3.org/2000/svg">
<path d="M22 17.42V20.42C22.0011 20.6985 21.9441 20.9742 21.8325 21.2294C21.7209 21.4845 21.5573 21.7136 21.3521 21.9019C21.1468 22.0901 20.9046 22.2335 20.6407 22.3227C20.3769 22.4119 20.0974 22.4451 19.82 22.42C16.7428 22.0856 13.787 21.0342 11.19 19.35C8.77382 17.8147 6.72533 15.7662 5.18999 13.35C3.49997 10.7412 2.44824 7.771 2.11999 4.68001C2.095 4.40347 2.12787 4.12477 2.21649 3.86163C2.30512 3.59849 2.44756 3.35669 2.63476 3.15163C2.82196 2.94656 3.0498 2.78271 3.30379 2.67053C3.55777 2.55834 3.83233 2.50027 4.10999 2.50001H7.10999C7.5953 2.49523 8.06579 2.66708 8.43376 2.98354C8.80173 3.29999 9.04207 3.73945 9.10999 4.22001C9.23662 5.18007 9.47144 6.12273 9.80999 7.03001C9.94454 7.38793 9.97366 7.77692 9.8939 8.15089C9.81415 8.52485 9.62886 8.86812 9.35999 9.14001L8.08999 10.41C9.51355 12.9136 11.5864 14.9865 14.09 16.41L15.36 15.14C15.6319 14.8711 15.9751 14.6859 16.3491 14.6061C16.7231 14.5263 17.1121 14.5555 17.47 14.69C18.3773 15.0286 19.3199 15.2634 20.28 15.39C20.7658 15.4585 21.2094 15.7032 21.5265 16.0775C21.8437 16.4518 22.0122 16.9296 22 17.42Z" stroke="black" stroke-width="2" stroke-linecap="round" stroke-linejoin="round"/>
</svg>
