<svg width="65" height="65" viewBox="0 0 65 65" fill="none" xmlns="http://www.w3.org/2000/svg">
<path d="M63.835 49.97C61.555 50.55 60.145 49.995 58.88 48.095C56.04 43.84 52.905 39.78 49.88 35.645C49.49 35.11 49.085 34.585 48.58 33.92C45 38.75 41.425 43.35 38.07 48.135C36.87 49.845 35.61 50.59 33.37 49.985L46.83 31.92L34.3 15.605C36.455 15.185 37.945 15.4 39.265 17.33C42.18 21.59 45.395 25.645 48.6 29.935C51.825 25.66 55 21.6 58 17.38C59.205 15.67 60.5 15.02 62.665 15.65C61.025 17.825 59.42 19.965 57.805 22.09C55.625 24.955 53.485 27.855 51.225 30.66C50.42 31.66 50.55 32.31 51.27 33.255C55.45 38.75 59.58 44.3 63.835 49.97ZM1.16502 31.62C1.52502 29.815 1.76502 27.975 2.26502 26.205C5.26502 15.49 17.565 11.035 26.015 17.675C30.965 21.57 32.195 27.06 31.95 33.25H4.05002C3.63002 44.355 11.625 51.06 21.815 47.64C25.39 46.44 27.495 43.64 28.55 40.14C29.085 38.385 29.97 38.11 31.62 38.61C30.775 42.99 28.86 46.65 24.86 48.94C18.86 52.37 10.295 51.26 5.79002 46.495C3.13002 43.695 2.00002 40.21 1.50002 36.445C1.42502 35.845 1.27002 35.255 1.15002 34.66C1.16002 33.6467 1.16502 32.6333 1.16502 31.62ZM4.10002 30.875H29.315C29.15 22.845 24.15 17.14 17.315 17.09C9.81503 17.03 4.42502 22.6 4.10002 30.875Z" fill="black"/>
</svg>
