<svg width="65" height="65" viewBox="0 0 65 65" fill="none" xmlns="http://www.w3.org/2000/svg">
<path d="M1.20401 1.45401H63.796V64.0465H1.20401V1.45401Z" fill="#F0DB4F"/>
<path d="M58.6735 49.118C58.215 46.2625 56.353 43.864 50.8375 41.6275C48.9215 40.747 46.7855 40.1165 46.149 38.6645C45.923 37.8195 45.893 37.3435 46.036 36.832C46.4465 35.172 48.428 34.6545 49.9985 35.1305C51.01 35.4695 51.9675 36.249 52.545 37.4925C55.246 35.7435 55.2405 35.755 57.1265 34.553C56.436 33.4825 56.0675 32.9885 55.6155 32.5305C53.991 30.716 51.7775 29.7815 48.2375 29.853L46.3935 30.0915C44.6265 30.538 42.9425 31.4655 41.955 32.709C38.992 36.071 39.837 41.955 43.4425 44.3765C46.9945 47.0425 52.2125 47.649 52.879 50.142C53.5275 53.194 50.636 54.182 47.762 53.831C45.644 53.3905 44.466 52.314 43.1925 50.3565C40.8485 51.713 40.8485 51.713 38.4385 53.099C39.01 54.3485 39.6105 54.914 40.5685 55.9965C45.1025 60.5955 56.4485 60.3695 58.4835 53.4085C58.566 53.1695 59.114 51.5755 58.6735 49.118ZM35.231 30.2215H29.3765L29.3525 45.3575C29.3525 48.5765 29.519 51.5275 28.9955 52.432C28.139 54.211 25.9195 53.9905 24.908 53.6455C23.8785 53.1395 23.355 52.42 22.7485 51.403C22.582 51.111 22.457 50.885 22.415 50.8675L17.655 53.7825C18.4465 55.407 19.6125 56.817 21.106 57.733C23.337 59.072 26.3355 59.4825 29.4715 58.7625C31.5125 58.168 33.2735 56.9365 34.1955 55.062C35.5285 52.6045 35.2425 49.63 35.2305 46.34C35.2605 40.9725 35.231 35.606 35.231 30.2215Z" fill="#323330"/>
</svg>
