<svg width="65" height="65" viewBox="0 0 65 65" fill="none" xmlns="http://www.w3.org/2000/svg">
<path d="M32.5 38.45C35.648 38.45 38.2 35.898 38.2 32.75C38.2 29.602 35.648 27.05 32.5 27.05C29.352 27.05 26.8 29.602 26.8 32.75C26.8 35.898 29.352 38.45 32.5 38.45Z" fill="#61DAFB"/>
<path d="M54.15 23.35C53.05 22.95 51.9 22.55 50.7 22.2C51 21 51.25 19.8 51.45 18.65C52.5 12.05 51.35 7.39999 48.15 5.59999C47.2 5.04999 46.15 4.79999 44.95 4.79999C41.45 4.79999 37 7.39999 32.5 11.75C28 7.39999 23.55 4.79999 20.05 4.79999C18.85 4.79999 17.8 5.04999 16.85 5.59999C13.65 7.44999 12.5 12.1 13.55 18.65C13.75 19.8 14 21 14.3 22.2C13.1 22.55 11.95 22.9 10.85 23.35C4.60001 25.75 1.20001 29.05 1.20001 32.75C1.20001 36.45 4.65001 39.75 10.85 42.15C11.95 42.55 13.1 42.95 14.3 43.3C14 44.5 13.75 45.7 13.55 46.85C12.5 53.45 13.65 58.1 16.85 59.9C17.8 60.45 18.85 60.7 20.05 60.7C23.6 60.7 28.05 58.1 32.5 53.75C37 58.1 41.45 60.7 44.95 60.7C46.15 60.7 47.2 60.45 48.15 59.9C51.35 58.05 52.5 53.4 51.45 46.85C51.25 45.7 51 44.5 50.7 43.3C51.9 42.95 53.05 42.6 54.15 42.15C60.4 39.75 63.8 36.45 63.8 32.75C63.8 29.05 60.4 25.75 54.15 23.35ZM46.75 8.09999C48.8 9.29999 49.5 13 48.65 18.25C48.5 19.3 48.25 20.4 47.95 21.55C45.35 20.95 42.6 20.55 39.7 20.3C38 17.9 36.25 15.75 34.5 13.8C38.2 10.15 41.95 7.64999 45 7.64999C45.65 7.64999 46.25 7.79999 46.75 8.09999ZM41.15 37.75C40.25 39.35 39.2 40.95 38.1 42.55C36.25 42.7 34.4 42.75 32.5 42.75C30.55 42.75 28.7 42.7 26.9 42.55C25.8 40.95 24.8 39.35 23.9 37.75C22.95 36.1 22.05 34.4 21.25 32.75C22.05 31.1 22.95 29.4 23.9 27.75C24.8 26.15 25.85 24.55 26.95 22.95C28.8 22.8 30.65 22.75 32.55 22.75C34.5 22.75 36.35 22.8 38.15 22.95C39.25 24.55 40.25 26.15 41.15 27.75C42.1 29.4 43 31.1 43.8 32.75C42.95 34.4 42.1 36.05 41.15 37.75ZM45.3 36.1C46.05 37.85 46.65 39.55 47.2 41.25C45.5 41.65 43.7 41.95 41.8 42.2C42.4 41.25 43.05 40.25 43.6 39.2C44.2 38.15 44.75 37.1 45.3 36.1ZM32.5 49.65C31.3 48.35 30.15 46.95 29.05 45.5C30.2 45.55 31.35 45.6 32.5 45.6C33.65 45.6 34.8 45.55 35.95 45.5C34.85 46.95 33.7 48.35 32.5 49.65ZM23.2 42.15C21.3 41.9 19.5 41.6 17.8 41.2C18.35 39.55 18.95 37.8 19.7 36.05C20.25 37.05 20.8 38.1 21.4 39.1C22 40.2 22.6 41.15 23.2 42.15ZM19.7 29.4C18.95 27.65 18.35 25.95 17.8 24.25C19.5 23.85 21.3 23.55 23.2 23.3C22.6 24.25 21.95 25.25 21.4 26.3C20.8 27.35 20.25 28.4 19.7 29.4ZM32.5 15.85C33.7 17.15 34.85 18.55 35.95 20C34.8 19.95 33.65 19.9 32.5 19.9C31.35 19.9 30.2 19.95 29.05 20C30.15 18.55 31.3 17.15 32.5 15.85ZM43.6 26.35L41.8 23.35C43.7 23.6 45.5 23.9 47.2 24.3C46.65 25.95 46.05 27.7 45.3 29.45C44.75 28.4 44.2 27.35 43.6 26.35ZM16.35 18.25C15.5 13 16.2 9.29999 18.25 8.09999C18.75 7.79999 19.35 7.64999 20 7.64999C23 7.64999 26.75 10.1 30.5 13.8C28.75 15.7 27 17.9 25.3 20.3C22.4 20.55 19.65 21 17.05 21.55C16.75 20.4 16.55 19.3 16.35 18.25ZM4.00001 32.75C4.00001 30.4 6.85001 27.9 11.85 26.05C12.85 25.65 13.95 25.3 15.05 25C15.85 27.5 16.85 30.15 18.05 32.8C16.85 35.45 15.8 38.05 15.05 40.55C8.15001 38.55 4.00001 35.55 4.00001 32.75ZM18.25 57.4C16.2 56.2 15.5 52.5 16.35 47.25C16.5 46.2 16.75 45.1 17.05 43.95C19.65 44.55 22.4 44.95 25.3 45.2C27 47.6 28.75 49.75 30.5 51.7C26.8 55.35 23.05 57.85 20 57.85C19.35 57.85 18.75 57.7 18.25 57.4ZM48.65 47.25C49.5 52.5 48.8 56.2 46.75 57.4C46.25 57.7 45.65 57.85 45 57.85C42 57.85 38.25 55.4 34.5 51.7C36.25 49.8 38 47.6 39.7 45.2C42.6 44.95 45.35 44.5 47.95 43.95C48.25 45.1 48.45 46.2 48.65 47.25ZM53.15 39.45C52.15 39.85 51.05 40.2 49.95 40.5C49.15 38 48.15 35.35 46.95 32.7C48.15 30.05 49.2 27.45 49.95 24.95C56.85 26.95 61 29.95 61 32.75C61 35.1 58.1 37.6 53.15 39.45Z" fill="#61DAFB"/>
</svg>
