<svg width="65" height="65" viewBox="0 0 65 65" fill="none" xmlns="http://www.w3.org/2000/svg">
<path d="M32.502 13.551C23.9685 13.551 18.637 17.816 16.502 26.3495C19.701 22.084 23.4355 20.4845 27.701 21.551C30.1365 22.158 31.877 23.924 33.8045 25.881C36.9415 29.0645 40.5725 32.75 48.502 32.75C57.035 32.75 62.367 28.4845 64.502 19.949C61.3025 24.217 57.5685 25.8165 53.3025 24.75C50.8675 24.1425 49.129 22.377 47.199 20.42C44.064 17.2365 40.434 13.551 32.502 13.551ZM16.502 32.75C7.96901 32.75 2.63701 37.0155 0.502014 45.551C3.70101 41.283 7.43501 39.6835 11.701 40.75C14.1365 41.3575 15.877 43.123 17.8045 45.08C20.9415 48.2635 24.5725 51.949 32.502 51.949C41.035 51.949 46.367 47.684 48.502 39.1505C45.3025 43.416 41.5685 45.0155 37.3025 43.949C34.8675 43.342 33.129 41.576 31.199 39.619C28.064 36.4355 24.434 32.75 16.502 32.75Z" fill="#38B2AC"/>
</svg>
