<svg width="65" height="65" viewBox="0 0 65 65" fill="none" xmlns="http://www.w3.org/2000/svg">
<path fill-rule="evenodd" clip-rule="evenodd" d="M44.519 22.156C45.3215 24.4775 45.8995 26.8475 46.0895 29.304C46.3255 32.3515 46.2175 35.3775 45.575 38.375C45.5575 38.4575 45.5205 38.535 45.493 38.615C45.2915 38.6155 45.086 38.5905 44.889 38.621C43.2245 38.8825 41.5615 39.1535 39.8985 39.423C38.1795 39.7015 36.458 39.969 34.742 40.2665C34.134 40.3715 33.3815 40.246 33.136 41.087C33.129 41.11 33.059 41.114 33.0185 41.127L33.1015 36.1015L33.017 23.9755L33.818 23.838C35.128 23.6235 36.438 23.406 37.749 23.1975C39.3135 22.949 40.8795 22.7075 42.445 22.465C43.1355 22.3575 43.827 22.259 44.519 22.156Z" fill="#439934"/>
<path fill-rule="evenodd" clip-rule="evenodd" d="M31.3645 55.777C30.5195 55.0505 29.645 54.356 28.835 53.592C24.4765 49.481 21.2885 44.6425 19.7185 38.809C19.286 37.2035 18.9975 35.572 18.905 33.913C18.84 32.752 18.746 31.5805 18.828 30.4255C19.0465 27.3535 19.4905 24.311 20.3915 21.352L20.441 21.283C20.5285 21.3995 20.6545 21.5025 20.699 21.634C21.5785 24.224 22.4515 26.816 23.32 29.4095C26.049 37.5595 28.7745 45.7115 31.508 53.8595C31.5615 54.0185 31.7 54.149 31.7995 54.2925L31.3645 55.777Z" fill="#45A538"/>
<path fill-rule="evenodd" clip-rule="evenodd" d="M44.519 22.156C43.827 22.259 43.135 22.3575 42.4445 22.464C40.879 22.7065 39.313 22.948 37.7485 23.1965C36.4375 23.405 35.1275 23.6225 33.8175 23.837L33.0165 23.9745L33.0105 23.452C32.984 23.0225 32.9385 22.5935 32.9335 22.164C32.899 19.425 32.8775 16.686 32.8435 13.947C32.8225 12.2325 32.791 10.5185 32.756 8.80448C32.7345 7.73948 32.7115 6.67399 32.6635 5.61048C32.6375 5.03898 32.5455 4.47048 32.508 3.89898C32.487 3.57048 32.516 3.23948 32.5225 2.90948C32.931 3.70098 33.3305 4.49848 33.7505 5.28398C34.414 6.52598 35.471 7.44098 36.4225 8.43948C40.184 12.3855 42.8545 16.9735 44.519 22.156Z" fill="#46A037"/>
<path fill-rule="evenodd" clip-rule="evenodd" d="M33.018 41.1265C33.0585 41.1135 33.129 41.1095 33.1355 41.0865C33.381 40.2455 34.1335 40.371 34.7415 40.266C36.4575 39.969 38.179 39.701 39.898 39.4225C41.561 39.153 43.224 38.882 44.8885 38.6205C45.0855 38.5895 45.291 38.615 45.4925 38.6145C45.1815 39.7245 44.9365 40.8585 44.542 41.938C44.094 43.1625 43.552 44.3575 42.9765 45.529C42.1149 47.2763 41.0486 48.915 39.8 50.4105C38.8405 51.5645 37.771 52.631 36.699 53.6845C36.1065 54.267 35.408 54.7415 34.758 55.265L34.5895 55.15L33.9825 54.631L33.3545 53.2545C32.9255 51.6488 32.6915 49.9972 32.6575 48.3355L32.669 48.055L32.7545 46.842C32.783 46.428 32.821 46.0145 32.8385 45.5995C32.903 44.1085 32.959 42.6175 33.018 41.1265Z" fill="#409433"/>
<path fill-rule="evenodd" clip-rule="evenodd" d="M33.018 41.1265C32.959 42.6175 32.903 44.1085 32.8395 45.6C32.822 46.015 32.784 46.4285 32.7555 46.8425L32.373 46.987C31.5235 44.486 30.6735 42.0115 29.842 39.5305C28.467 35.426 27.1085 31.315 25.7355 27.2095C24.6266 23.8957 23.5099 20.5846 22.3855 17.276C22.333 17.121 22.182 17 22.077 16.863L24.525 12.362C24.609 12.508 24.72 12.6445 24.773 12.8015C25.9068 16.1526 27.0348 19.5056 28.157 22.8605C29.615 27.2255 31.064 31.594 32.521 35.9595C32.579 36.134 32.675 36.295 32.7665 36.4905L33.1015 36.1005L33.018 41.1265Z" fill="#4FAA41"/>
<path fill-rule="evenodd" clip-rule="evenodd" d="M22.0775 16.8635C22.1825 17.0005 22.333 17.1215 22.386 17.2765C23.5104 20.5851 24.6271 23.8962 25.736 27.21C27.109 31.3155 28.4675 35.4265 29.8425 39.531C30.6735 42.0115 31.5235 44.4865 32.3735 46.9875L32.756 46.843L32.6705 48.056L32.593 48.3355C32.46 49.6635 32.348 50.9945 32.186 52.3195C32.1045 52.9835 31.9315 53.6355 31.8 54.293C31.701 54.1495 31.562 54.019 31.5085 53.86C28.775 45.7115 26.0495 37.56 23.3205 29.41C22.4523 26.8163 21.5787 24.2245 20.6995 21.6345C20.655 21.503 20.5295 21.4 20.4415 21.2835L22.0775 16.8635Z" fill="#4AA73C"/>
<path fill-rule="evenodd" clip-rule="evenodd" d="M33.101 36.101L32.766 36.491C32.6745 36.2955 32.5785 36.134 32.5205 35.96C31.064 31.5945 29.6145 27.226 28.1565 22.861C27.0342 19.5061 25.9062 16.1531 24.7725 12.802C24.72 12.645 24.609 12.508 24.5245 12.3625L27.552 8.38C27.6475 8.5075 27.7835 8.621 27.833 8.7645C28.6735 11.225 29.5065 13.6885 30.3345 16.1535C31.108 18.4555 31.87 20.761 32.6525 23.06C32.705 23.214 32.8875 23.323 33.0095 23.453L33.0155 23.9755C33.0445 28.0165 33.073 32.059 33.101 36.101Z" fill="#57AE47"/>
<path fill-rule="evenodd" clip-rule="evenodd" d="M33.0105 23.452C32.8885 23.322 32.706 23.213 32.6535 23.059C31.871 20.76 31.109 18.4545 30.3355 16.1525C29.5075 13.6875 28.6745 11.2245 27.834 8.76351C27.7845 8.62001 27.6485 8.50651 27.553 8.37901C28.5375 7.41501 29.4915 6.41651 30.5155 5.49701C31.426 4.68001 32.158 3.80401 32.1915 2.51301C32.193 2.45951 32.221 2.40601 32.264 2.25601L32.5235 2.90901C32.517 3.23951 32.4875 3.57001 32.509 3.89851C32.5465 4.47001 32.6385 5.03851 32.6645 5.61001C32.7125 6.67351 32.7355 7.73901 32.757 8.80401C32.7915 10.518 32.823 12.232 32.8445 13.9465C32.878 16.6855 32.9 19.4245 32.9345 22.1635C32.9385 22.594 32.9835 23.0225 33.0105 23.452Z" fill="#60B24F"/>
<path fill-rule="evenodd" clip-rule="evenodd" d="M31.799 54.2925C31.9305 53.635 32.1035 52.9825 32.185 52.319C32.3475 50.9945 32.459 49.663 32.592 48.335L32.625 48.33L32.658 48.3355C32.692 49.9972 32.9261 51.6488 33.355 53.2545C33.267 53.3705 33.1425 53.474 33.096 53.605C32.7325 54.63 32.39 55.663 32.0245 56.688C31.9745 56.828 31.8355 56.937 31.7375 57.06L31.364 55.777L31.799 54.2925Z" fill="#A9AA88"/>
<path fill-rule="evenodd" clip-rule="evenodd" d="M31.738 57.0605C31.836 56.9375 31.9755 56.8285 32.025 56.6885C32.3905 55.6635 32.7335 54.631 33.0965 53.6055C33.143 53.4745 33.267 53.371 33.3555 53.255L33.983 54.632C33.859 54.808 33.688 54.9665 33.619 55.1625L32.417 58.692C32.3675 58.8335 32.1985 58.9335 32.0855 59.053L31.738 57.0605Z" fill="#B6B598"/>
<path fill-rule="evenodd" clip-rule="evenodd" d="M32.0855 59.0525C32.199 58.9335 32.3675 58.833 32.417 58.6915L33.619 55.162C33.6875 54.9665 33.859 54.8075 33.983 54.6315L34.5905 55.15C34.297 55.44 34.134 55.775 34.232 56.1985L34.0475 56.8025C33.9635 56.906 33.842 56.996 33.8005 57.1145C33.381 58.316 32.9805 59.524 32.558 60.7255C32.5045 60.878 32.356 60.9975 32.251 61.1315C32.1965 60.438 32.141 59.746 32.0855 59.0525Z" fill="#C2C1A7"/>
<path fill-rule="evenodd" clip-rule="evenodd" d="M32.2515 61.1315C32.356 60.997 32.5045 60.8775 32.5585 60.7255C32.981 59.5245 33.3815 58.3165 33.801 57.1145C33.8425 56.9965 33.9635 56.906 34.048 56.8025L33.7935 59.575C33.7255 59.6535 33.627 59.722 33.5945 59.8135C33.307 60.6205 33.036 61.4335 32.7475 62.2405C32.688 62.407 32.574 62.554 32.485 62.7095C32.406 62.606 32.2645 62.506 32.258 62.398C32.2325 61.9775 32.25 61.554 32.2515 61.1315Z" fill="#CECDB7"/>
<path fill-rule="evenodd" clip-rule="evenodd" d="M32.4845 62.7095C32.5735 62.5535 32.6875 62.4065 32.747 62.2405C33.036 61.434 33.3065 60.621 33.594 59.8135C33.6265 59.722 33.7255 59.654 33.793 59.575L33.799 61.395L33.19 62.957L32.4845 62.7095Z" fill="#DBDAC7"/>
<path fill-rule="evenodd" clip-rule="evenodd" d="M33.19 62.9575L33.799 61.3955L33.9245 63.2435L33.19 62.9575Z" fill="#EBE9DC"/>
<path fill-rule="evenodd" clip-rule="evenodd" d="M34.232 56.199C34.134 55.7755 34.2965 55.44 34.5905 55.1505L34.759 55.2655L34.232 56.199Z" fill="#CECDB7"/>
<path fill-rule="evenodd" clip-rule="evenodd" d="M32.658 48.336L32.625 48.3305L32.592 48.3355L32.6695 48.056L32.658 48.336Z" fill="#4FAA41"/>
</svg>
