<svg width="63" height="64" viewBox="0 0 63 64" fill="none" xmlns="http://www.w3.org/2000/svg">
<path fill-rule="evenodd" clip-rule="evenodd" d="M60.6661 38.0421C60.4446 36.6059 59.2382 35.6653 57.835 35.6019C57.327 35.5787 56.8112 35.6319 56.3048 35.6964C55.693 35.7741 55.0886 35.9119 54.4783 36.003C54.0565 36.066 53.6287 36.095 53.2074 36.1383L53.1971 36.0837C53.9836 34.5983 54.8031 33.1291 55.5473 31.6225C56.1177 30.4669 56.606 29.2694 57.1105 28.0817C57.9452 26.114 58.6122 24.0852 59.1644 22.0234C59.6935 20.0492 60.1463 18.0534 60.2885 16.0054C60.3456 15.1874 60.385 14.3659 60.3806 13.5469C60.3766 12.8938 60.3063 12.2397 60.2408 11.5885C60.167 10.8424 59.9416 10.1351 59.6295 9.4544C59.218 8.55763 58.5802 7.82181 57.9088 7.12291C57.3713 6.56329 56.7802 6.05338 56.194 5.54397C55.3583 4.81701 54.4187 4.23672 53.4427 3.7214C52.3371 3.13389 51.1657 2.67954 49.9531 2.36788C49.2183 2.18036 48.4667 2.04107 47.7225 1.89243C47.4548 1.83829 47.1865 1.72656 46.9188 1.72656H41.8783C41.6962 1.72656 41.5155 1.82057 41.3319 1.84124C40.1251 1.97561 38.9325 2.203 37.7744 2.5618C37.3413 2.69617 36.9456 2.61152 36.5341 2.57362C36.2186 2.54458 35.9085 2.45992 35.593 2.44417C34.3911 2.38413 33.1877 2.29602 31.9863 2.30882C30.8351 2.32063 29.6956 2.51013 28.5813 2.8266C27.6486 3.0914 26.7361 3.41477 25.9004 3.90498C25.5426 4.11466 25.2591 4.07528 24.8889 3.96848C23.6452 3.60967 22.3926 3.27252 21.1291 2.98952C20.3416 2.81331 19.532 2.7257 18.7277 2.64154C17.956 2.56133 17.1813 2.51306 16.4056 2.49684C15.6486 2.48059 14.8862 2.48109 14.1327 2.54802C12.9324 2.65237 11.7494 2.90243 10.6096 3.2927C9.34727 3.72372 8.16778 4.36707 7.12195 5.19501C6.05538 6.03911 5.19996 7.06975 4.51188 8.24657C3.78689 9.48836 3.28978 10.8178 2.98069 12.2141C2.81334 12.9706 2.70752 13.7482 2.59284 14.5165C2.55691 14.7557 2.95313 14.995 2.46094 15.2332V18.5771C2.95313 18.7996 2.56331 19.0215 2.59186 19.2445C2.66027 19.7805 2.72081 20.3209 2.81137 20.853C2.9546 21.6951 3.12441 22.5348 3.29766 23.3715C3.53822 24.5409 3.79188 25.7077 4.05858 26.8714C4.25348 27.718 4.47546 28.5596 4.70777 29.3969C5.06264 30.6756 5.41209 31.9567 5.81323 33.2211C6.18581 34.396 6.61254 35.5541 7.03582 36.7122C7.62202 38.3143 8.32388 39.8647 9.16552 41.3506C9.89346 42.6372 10.7253 43.8421 11.841 44.8333C12.5764 45.4865 13.3949 45.9885 14.3478 46.2395C15.0964 46.4364 15.8573 46.46 16.6236 46.303C17.4967 46.1254 18.3124 45.7346 18.9979 45.1656C19.0782 45.0996 19.1663 45.0494 19.2613 45.1705C19.623 45.6287 20.1073 45.9344 20.6138 46.1987C21.9806 46.9113 23.47 47.125 24.9829 47.2121C25.3491 47.2332 25.7193 47.1806 26.0884 47.1702C26.8075 47.1505 27.5064 47.0103 28.194 46.8114C28.5543 46.7071 28.9062 46.5747 29.2729 46.4511C29.292 46.8415 29.3167 47.2175 29.328 47.5935L29.3792 49.644C29.3885 49.956 29.4008 50.2691 29.4299 50.5796C29.5042 51.3804 29.577 52.1817 29.6725 52.98C29.739 53.5303 29.8079 54.085 29.9373 54.622C30.1968 55.706 30.5523 56.7647 30.9994 57.7857C31.4276 58.7768 32.0856 59.6516 32.919 60.3377C34.0116 61.2414 35.2923 61.6268 36.6754 61.6981C37.2473 61.7282 37.8354 61.7001 38.3985 61.5977C39.2934 61.4387 40.1786 61.2292 41.0499 60.9702C42.8174 60.4367 44.3451 59.5153 45.4865 58.0264C46.1362 57.1779 46.6697 56.26 47.0123 55.2465C47.2948 54.4093 47.5611 53.5638 47.7727 52.7069C47.94 52.0316 48.0227 51.3351 48.1246 50.6456C48.1921 50.1893 48.2324 49.7286 48.2747 49.2689C48.3436 48.5223 48.414 47.7761 48.4637 47.028C48.4982 46.5073 48.4967 45.9841 48.5174 45.4623C48.5238 45.3034 48.5494 45.1454 48.5641 44.9869C48.5779 44.8402 48.6518 44.7895 48.8014 44.792C49.3285 44.7999 49.8566 44.8136 50.3823 44.79C50.9714 44.7634 51.566 44.7383 52.1458 44.6409C52.972 44.5029 53.7915 44.3276 54.6018 44.1157C55.5581 43.8657 56.4352 43.4178 57.2793 42.9074C58.2627 42.3133 59.159 41.6164 59.8864 40.7186C60.5189 39.9356 60.8186 39.0304 60.6661 38.0421ZM58.9867 38.5255C58.9542 38.9758 58.748 39.3617 58.4487 39.6914C57.0367 41.2482 55.2653 42.1927 53.2389 42.6579C52.4692 42.8341 51.6748 42.9256 50.8868 42.9985C50.2135 43.0577 49.5372 43.0736 48.8619 43.0462C48.3668 43.0275 47.8756 42.9143 47.3696 42.8414C47.3189 43.3041 47.2707 43.786 47.2121 44.2668L46.9763 46.1101C46.905 46.6943 46.8494 47.2805 46.776 47.8642C46.7042 48.4307 46.6146 48.9953 46.5393 49.5618C46.4689 50.0894 46.4172 50.6195 46.339 51.1461C46.2184 51.9533 46.1032 52.7625 45.9457 53.5633C45.7567 54.5206 45.4668 55.4478 44.9938 56.3111C44.417 57.3649 43.599 58.1677 42.558 58.7622C41.485 59.3755 40.3121 59.6944 39.123 59.9612C38.2814 60.1502 37.4141 60.1812 36.5617 60.1044C35.0831 59.9706 33.8212 59.3381 32.8673 58.1918C31.9568 57.0977 31.3405 55.8436 31.12 54.4241C31.0171 53.7484 30.9365 53.0694 30.8784 52.3884C30.8131 51.6316 30.764 50.8734 30.7312 50.1145C30.6876 49.1517 30.6553 48.1884 30.6342 47.2249C30.6082 46.0407 30.5998 44.8565 30.5831 43.6723L30.5801 43.627C29.9777 43.9882 29.3856 44.384 28.7575 44.7098C28.0236 45.0894 27.2202 45.316 26.396 45.3757C25.7473 45.4249 25.0902 45.4697 24.4445 45.418C23.3858 45.3329 22.3281 45.167 21.3801 44.6458C20.9957 44.4342 20.5946 44.1768 20.3298 43.8386C19.6949 43.0285 19.9991 42.0047 20.9564 41.512C21.6179 41.171 22.3399 41.0287 23.057 40.8629C23.6812 40.7212 24.2988 40.5523 24.9081 40.3564C25.5096 40.1595 25.8891 39.6718 26.2636 39.1934L26.8572 38.43C26.6096 38.4039 26.3763 38.3773 26.143 38.3556C25.4348 38.2887 24.759 38.0938 24.1128 37.8074C23.5595 37.5627 23.5512 37.5362 23.1456 37.9762C22.4684 38.7115 21.8098 39.4641 21.1463 40.2117C20.6581 40.7615 20.1728 41.3147 19.687 41.8659C19.2057 42.4113 18.7548 42.9876 18.2365 43.4951C17.4668 44.2486 16.539 44.7019 15.432 44.6507C14.7218 44.6182 14.0716 44.3692 13.4869 43.9622C12.2801 43.1215 11.467 41.9457 10.7267 40.7108C9.77829 39.1284 9.05034 37.4426 8.42723 35.7106C7.99608 34.5136 7.56295 33.3156 7.18643 32.1014C6.77742 30.7819 6.41862 29.4456 6.06572 28.1098C5.80212 27.1006 5.55893 26.0861 5.3363 25.0671C5.0767 23.9098 4.83648 22.7482 4.61573 21.5829C4.46906 20.7959 4.38391 19.9975 4.2653 19.2051C4.10534 18.1371 4.0758 17.0592 4.13388 15.9867C4.18556 15.0205 4.32436 14.0568 4.46217 13.0971C4.65314 11.7692 5.0907 10.516 5.7202 9.33283C6.10559 8.60784 6.58399 7.9488 7.13721 7.33652C8.0453 6.33147 9.14435 5.605 10.3669 5.05966C11.2214 4.6787 12.1241 4.44934 13.044 4.27019C14.4093 4.00441 15.7869 4.01474 17.165 4.04329C17.7675 4.05559 18.3675 4.16535 18.9694 4.22491C20.2653 4.35386 21.5357 4.62653 22.7898 4.96319C23.7038 5.2083 24.599 5.52576 25.5056 5.80138C25.5967 5.82895 25.7301 5.82648 25.8044 5.77776C27.0329 4.97598 28.3756 4.44688 29.8034 4.14419C30.3453 4.02951 30.9045 3.9793 31.4587 3.94387C32.1325 3.90105 32.8117 3.86167 33.484 3.90055C34.2922 3.94682 35.0964 4.06593 35.8997 4.17618C36.2895 4.22934 36.6699 4.36469 37.0607 4.4016C37.2478 4.41932 37.4461 4.28249 37.644 4.23672C38.6525 4.00391 39.6565 3.74453 40.6739 3.56045C41.4314 3.42362 42.2051 3.35915 42.9754 3.31485C43.8342 3.26563 44.6995 3.2297 45.5579 3.27105C46.6448 3.32487 47.7246 3.47692 48.7841 3.72534C50.1017 4.03197 51.3657 4.4774 52.5671 5.09559C53.4649 5.55726 54.3183 6.09276 55.0866 6.7513C55.5901 7.18344 56.1054 7.61017 56.5602 8.09153C57.1213 8.68511 57.6937 9.27918 58.0456 10.0396C58.3104 10.613 58.4994 11.2066 58.5516 11.8346C58.6166 12.6152 58.6953 13.3988 58.6879 14.1804C58.6811 14.928 58.5792 15.6752 58.5068 16.4208C58.3424 18.1208 57.9728 19.7839 57.5239 21.4249C57.1484 22.7804 56.7234 24.1217 56.2497 25.4461C55.817 26.6672 55.3179 27.8661 54.8134 29.0602C54.4421 29.9447 54.0385 30.8153 53.6036 31.6703C52.7783 33.2876 51.9199 34.8882 50.9271 36.4115C50.7559 36.6748 50.5934 36.9445 50.4261 37.2133C50.8592 37.5056 51.3499 37.6085 51.8441 37.6617C52.3141 37.7129 52.7935 37.7434 53.2631 37.7084C54.0146 37.6528 54.7637 37.5455 55.5109 37.4407C56.2511 37.3373 56.9766 37.1267 57.7365 37.1823C58.4955 37.2374 59.0384 37.8142 58.9867 38.5255ZM48.1522 36.8751C47.8298 36.4588 47.501 36.0473 47.1855 35.626C46.6904 34.9645 46.3345 34.2257 45.9772 33.4835C45.6386 32.7801 45.2232 32.1142 44.8663 31.4188C44.2437 30.2055 43.6098 28.9962 43.0364 27.7593C42.3153 26.2055 41.7469 24.5965 41.5677 22.8754C41.4919 22.1469 41.4727 21.4195 41.6199 20.6979C41.8556 19.5457 42.4576 18.6445 43.4695 18.0263C44.4081 17.4529 45.454 17.2679 46.5255 17.2098C47.1904 17.1739 47.8583 17.2034 48.5484 17.2034L48.5253 17.0868C48.0961 16.1895 47.6949 15.277 47.2254 14.4009C46.5629 13.1645 45.7154 12.0497 44.7713 11.0161C44.0719 10.2508 43.3145 9.54053 42.4846 8.91299C41.6686 8.2953 40.8087 7.74355 39.8913 7.29222C38.7972 6.75426 37.6578 6.33836 36.4622 6.07307C35.3135 5.81812 34.1573 5.66209 32.979 5.6493C31.974 5.63847 30.9753 5.68375 29.9964 5.91065C28.5188 6.25272 27.1673 6.86106 25.9914 7.84642C25.3409 8.39201 24.7596 9.01515 24.2604 9.70197C23.6718 10.5106 23.1968 11.3838 22.7907 12.2992C22.2336 13.5553 21.8512 14.8626 21.5898 16.2062C21.4589 16.8761 21.3565 17.5519 21.2522 18.2271C21.2157 18.4634 21.2128 18.7051 21.1916 18.9758C21.3732 18.8813 21.5042 18.8084 21.638 18.7435L22.0736 18.5481C23.5467 17.8742 25.073 17.4406 26.7135 17.4903C27.4104 17.5115 28.0773 17.6493 28.697 17.9545C29.8856 18.5407 30.5811 19.5374 30.8833 20.7988C31.092 21.6695 31.2347 22.5574 31.3735 23.4429C31.4823 24.1344 31.5935 24.8333 31.6063 25.5307C31.6245 26.55 31.5728 27.5713 31.5172 28.5902C31.4695 29.4565 31.2902 30.3105 30.9857 31.123C30.4344 32.5961 29.8202 34.0451 29.2463 35.5098C29.0568 35.9936 28.9111 36.4947 28.7319 37.0267C29.0085 37.0267 29.233 37.0248 29.4574 37.0277C29.545 37.0292 29.6346 37.0317 29.7193 37.0518C30.3788 37.2074 30.9507 37.5061 31.4198 38.0136C32.0453 38.6889 32.3736 39.4769 32.3904 40.3889C32.3997 40.8944 32.3466 41.4013 32.349 41.9068C32.3594 44.2624 32.3771 46.618 32.3968 48.9731C32.4002 49.358 32.4194 49.7434 32.447 50.1278C32.5046 50.9325 32.5626 51.7377 32.6414 52.5405C32.6965 53.11 32.7733 53.6784 32.8634 54.244C32.9908 55.0452 33.3555 55.7584 33.7695 56.4401C34.1258 57.0263 34.589 57.5244 35.1993 57.8679C36.2363 58.4517 37.3531 58.5004 38.4787 58.2853C39.2392 58.1401 39.9858 57.9068 40.7241 57.6661C41.4501 57.4332 42.113 57.0368 42.6618 56.5075C43.1791 56.006 43.5463 55.3947 43.7939 54.7199C44.2742 53.4112 44.4239 52.033 44.6227 50.6657C44.697 50.1539 44.7615 49.6405 44.8294 49.1277C44.9067 48.5439 44.985 47.9607 45.0598 47.3774C45.1149 46.9428 45.1651 46.5073 45.2183 46.0727C45.2941 45.4486 45.3743 44.825 45.4466 44.2004C45.5022 43.7175 45.5495 43.2327 45.5987 42.7489C45.6622 42.1307 45.7306 41.5125 45.7853 40.8934C45.8276 40.4233 45.8104 39.9449 45.8935 39.4837C46.0466 38.6382 46.4463 37.9186 47.1959 37.4535C47.5094 37.2591 47.8633 37.1311 48.2112 36.9667L48.1522 36.8751ZM19.8037 33.4042C19.4298 32.5251 19.2046 31.5901 19.1372 30.6372C19.0742 29.7389 19.181 28.8441 19.2731 27.9498C19.3627 27.0836 19.437 26.2134 19.4631 25.3432C19.5064 23.9129 19.4099 22.4846 19.3415 21.0553C19.3001 20.2043 19.3991 19.3429 19.4749 18.49C19.5433 17.7217 19.6284 16.9514 19.7736 16.1944C20.0173 14.9241 20.3406 13.672 20.8003 12.4582C21.2369 11.3075 21.7384 10.1868 22.4467 9.17779C22.932 8.48577 23.4828 7.83904 24.0119 7.16277L23.8549 7.10716C22.1332 6.56034 20.3835 6.13312 18.584 5.94658C17.733 5.85848 16.8791 5.8068 16.0256 5.7561C15.7638 5.74035 15.498 5.77579 15.2352 5.80089C14.5845 5.86291 13.926 5.88752 13.2856 6.00958C12.1959 6.21679 11.1505 6.56526 10.1824 7.13275C9.31317 7.64216 8.58326 8.30071 7.97196 9.09067C7.29668 9.96283 6.84239 10.9492 6.51607 12.001C6.13069 13.2418 5.9471 14.5185 5.89739 15.8071C5.85408 16.9366 5.83242 18.0726 6.02733 19.1977C6.17252 20.0354 6.26948 20.882 6.42945 21.7163C6.64748 22.8537 6.88127 23.9887 7.15148 25.1143C7.53785 26.7257 7.92373 28.3396 8.38146 29.9314C8.81951 31.4567 9.31366 32.9682 9.84916 34.4615C10.2872 35.6801 10.7937 36.8761 11.3272 38.0564C11.6747 38.8252 12.0955 39.565 12.5365 40.285C13.0056 41.0494 13.5391 41.7749 14.2631 42.3296C15.1766 43.03 15.8839 43.1387 16.8121 42.3704C17.2098 42.0411 17.546 41.6346 17.892 41.2472C18.4418 40.632 18.9724 40 19.5197 39.3828C20.2166 38.5963 20.9224 37.8182 21.6228 37.0356C21.7709 36.8702 21.9132 36.6999 22.0574 36.5326L21.8192 36.3234C20.9542 35.4989 20.2681 34.5053 19.8037 33.4042ZM46.2282 9.99137C46.8009 10.6571 47.3443 11.3475 47.8569 12.0605C48.8412 13.4431 49.6278 14.9359 50.2071 16.533C50.4635 17.2369 50.6682 17.9476 50.5767 18.7179C50.5132 19.2573 50.5186 19.8046 50.4709 20.347C50.431 20.7983 50.3596 21.2472 50.3011 21.6971C50.2135 22.3753 50.0865 23.0516 50.0486 23.7328C50.0126 24.381 50.0501 25.0361 50.0909 25.6858C50.1323 26.3458 50.2213 27.0029 50.2819 27.6619C50.3503 28.409 50.4423 29.1562 50.4635 29.9048C50.4807 30.5195 50.4261 31.1382 50.3724 31.752C50.3085 32.4912 50.1209 33.2069 49.8414 33.8935C49.645 34.3768 49.4102 34.8454 49.1882 35.3292L49.2773 35.4237L49.4127 35.5285L49.549 35.2844C50.7003 33.4725 51.7236 31.5823 52.6114 29.6277C53.1794 28.3659 53.7189 27.0915 54.2292 25.8054C55.0285 23.8051 55.661 21.7487 56.1502 19.6515C56.3697 18.71 56.5376 17.7542 56.6867 16.7983C56.8029 16.0512 56.8998 15.2952 56.9215 14.5412C56.9446 13.7414 56.9003 12.9351 56.8265 12.1373C56.7714 11.5349 56.6227 10.9285 56.2452 10.4388C55.6384 9.65029 54.9833 8.89626 54.1775 8.29973C53.4993 7.7972 52.8235 7.28188 52.0956 6.85909C50.9414 6.18972 49.6922 5.7438 48.387 5.44012C47.1132 5.14333 45.8227 5.01536 44.5238 4.98829C43.7579 4.97205 42.9886 5.05424 42.2243 5.1261C41.5318 5.19107 40.8437 5.30181 40.1463 5.39336C40.8944 5.81418 41.6322 6.18824 42.3281 6.62924C43.7914 7.55603 45.1026 8.67133 46.2282 9.99137ZM27.2175 35.9405C27.6905 34.428 28.3347 32.9839 28.9588 31.531C29.4648 30.3527 29.7414 29.1114 29.8335 27.8366C29.8792 27.2081 29.8664 26.5717 29.8354 25.9412C29.8046 25.2398 29.7403 24.5402 29.6425 23.845C29.5116 22.9585 29.3624 22.0716 29.1528 21.2014C28.9254 20.2599 28.352 19.6043 27.3696 19.3626C26.7711 19.2155 26.1765 19.2214 25.5716 19.3169C24.0941 19.5497 22.7415 20.094 21.4815 20.8914C21.228 21.0518 21.0888 21.1813 21.1326 21.545C21.2251 22.3153 21.2453 23.0978 21.2418 23.8755C21.2369 24.976 21.1901 26.0766 21.1483 27.1766C21.1345 27.5349 21.0829 27.8912 21.0445 28.2481C20.9854 28.7944 20.8717 29.3403 20.8751 29.8856C20.8786 30.4477 20.9362 31.023 21.0725 31.5674C21.5056 33.2935 22.4231 34.7061 23.9267 35.7028C24.8515 36.3155 25.8748 36.6246 26.998 36.6832C27.0743 36.4253 27.1422 36.1817 27.2175 35.9405ZM25.4525 21.132C25.2546 20.7166 25.3678 20.3726 25.8266 20.2131C25.9383 20.1737 26.0535 20.1319 26.1696 20.1206C26.3291 20.1048 26.4915 20.1167 26.6529 20.1167C27.2347 20.1196 27.7943 20.2008 28.2747 20.5709C28.5828 20.8082 28.6655 21.1232 28.4662 21.4465C28.1831 21.9053 27.7515 22.1356 27.2214 22.1799C26.3862 22.2493 25.8 21.86 25.4525 21.132ZM48.605 20.9804C48.6719 20.4272 48.7256 19.8725 48.794 19.3193C48.8216 19.0968 48.7044 19.0368 48.5179 19.0314C47.9312 19.0151 47.3445 18.9945 46.7578 18.9836C46.0963 18.9718 45.4525 19.0781 44.8403 19.3296C44.161 19.6092 43.6437 20.0571 43.4326 20.7964C43.2781 21.3415 43.2292 21.9112 43.2884 22.4747C43.3706 23.3461 43.5681 24.2028 43.8756 25.0223C44.286 26.1154 44.7157 27.2081 45.2291 28.2555C45.9245 29.6735 46.7115 31.0462 47.4503 32.4425C47.6477 32.8151 47.8136 33.2039 48.0193 33.639C48.4341 32.774 48.6607 31.8309 48.6842 30.8719C48.7044 30.0795 48.6409 29.2836 48.5947 28.4907C48.5656 28.0054 48.4972 27.5231 48.45 27.0388C48.384 26.364 48.2841 25.6897 48.2688 25.0134C48.2536 24.3258 48.3023 23.6343 48.3614 22.9477C48.417 22.2892 48.5258 21.636 48.605 20.9804ZM47.2815 20.4479C47.0635 21.0498 46.5974 21.3895 45.993 21.4894C45.4294 21.5819 44.9357 21.3737 44.5686 20.9243C44.3072 20.6044 44.4071 20.2254 44.7989 20.0094C45.2488 19.7603 45.7434 19.6973 46.3267 19.6594C46.4851 19.6885 46.7239 19.7126 46.9508 19.7775C47.28 19.8706 47.4016 20.1181 47.2815 20.4479ZM29.8472 38.9837C29.5249 38.7204 29.0986 38.7051 28.792 38.994C28.4115 39.3533 28.0768 39.7643 27.7422 40.1694C27.3558 40.6374 26.9935 41.1242 26.4949 41.4869C25.7695 42.0141 24.9239 42.2326 24.0739 42.4393C23.3981 42.6037 22.7194 42.7563 22.0416 42.9143L22.0333 43.0019C22.2346 43.0949 22.4295 43.2111 22.6392 43.2775C23.6727 43.6048 24.7241 43.7677 25.8162 43.6752C26.6047 43.6083 27.3558 43.4365 28.0675 43.0989C29.0469 42.6347 29.8005 41.8994 30.4413 41.044C30.5486 40.9012 30.5973 40.6901 30.6101 40.506C30.6539 39.8558 30.3237 39.3725 29.8472 38.9837ZM55.3184 39.2426C54.4866 39.3317 53.6539 39.4262 52.8196 39.4739C52.417 39.497 52.0085 39.4202 51.6019 39.3873C50.9202 39.3321 50.2548 39.1806 49.6785 38.8163C49.3448 38.6062 49.0676 38.5825 48.7133 38.7017C48.2073 38.872 47.7944 39.1308 47.6723 39.6791C47.5891 40.0498 47.5591 40.4337 47.5256 40.8131C47.5192 40.8801 47.6029 41.0031 47.6669 41.0199C48.0572 41.1227 48.4495 41.2443 48.8486 41.2802C49.3388 41.3245 49.8379 41.3102 50.3316 41.2856C50.8646 41.2591 51.4011 41.2246 51.9263 41.136C53.1641 40.9283 54.3616 40.5897 55.4252 39.8878C55.8087 39.6343 56.1886 39.3755 56.5696 39.119L56.5381 39.0649C56.1315 39.1254 55.7269 39.1993 55.3184 39.2426Z" fill="#336791"/>
</svg>
